<svg height="405pt" viewBox="-2 0 405 405.62" width="405pt" xmlns="http://www.w3.org/2000/svg"><path d="m400.308594 238.25v121.351562c.003906 15.964844-12.941406 28.910157-28.910156 28.910157h-197.886719c15.96875 0 28.917969-12.941407 28.917969-28.910157v-121.351562c-.007813-8.632812 3.847656-16.820312 10.511718-22.308594.71875-.582031 1.457032-1.140625 2.230469-1.660156.769531-.519531 1.558594-1 2.378906-1.453125.820313-.449219 1.660157-.847656 2.527344-1.21875.871094-.371094 1.75-.6875 2.652344-.96875 2.785156-.863281 5.683593-1.300781 8.597656-1.300781h140.070313c15.96875 0 28.910156 12.945312 28.910156 28.910156zm0 0" fill="#e48e66"/><path d="m364.859375 203.449219v5.890625h-133.53125c-2.914063 0-5.8125.4375-8.597656 1.300781-.898438.277344-1.785157.601563-2.652344.96875-.867187.371094-1.707031.78125-2.527344 1.21875-.816406.445313-1.613281.929687-2.378906 1.453125-.773437.519531-1.511719 1.070312-2.230469 1.660156-6.664062 5.488282-10.519531 13.675782-10.511718 22.308594v121.351562c0 15.96875-12.949219 28.910157-28.917969 28.910157h-3.042969c-10.695312 0-20.523438-5.898438-25.546875-15.339844l1.339844-1.332031 26.046875-25.917969-28.757813-28.902344-2-2.007812v-144.863281c.003907-15.964844 12.953125-28.90625 28.917969-28.898438h64.859375c8.117187 0 15.859375 3.40625 21.34375 9.390625l2.398437 2.621094 17.289063 18.929687c1.371094 1.492188 3.304687 2.34375 5.332031 2.347656h54.25c15.96875-.003906 28.917969 12.941407 28.917969 28.910157zm0 0" fill="#f8ec7d"/><path d="m259.070312 97v56.261719l-2.398437-2.621094c-5.484375-5.984375-13.226563-9.390625-21.34375-9.390625h-64.859375c-15.964844-.007812-28.914062 12.933594-28.917969 28.898438v77.121093h-109.28125c15.96875-.003906 28.90625-12.953125 28.902344-28.917969v-121.351562c0-15.96875 12.949219-28.90625 28.917969-28.898438h140.070312c15.964844-.007812 28.910156 12.933594 28.910156 28.898438zm0 0" fill="#e48e66"/><path d="m223.621094 62.210938v5.890624h-133.53125c-15.96875-.007812-28.917969 12.929688-28.917969 28.898438v121.351562c.003906 15.964844-12.933594 28.914063-28.902344 28.917969h-3.039062c-15.972657 0-28.917969-12.949219-28.921875-28.917969v-189.441406c.003906-15.96875 12.953125-28.91406225 28.921875-28.910156h64.847656c8.121094-.00390625 15.863281 3.410156 21.34375 9.398438l19.6875 21.550781c1.371094 1.492187 3.304687 2.339843 5.332031 2.339843h54.257813c15.972656.003907 28.917969 12.949219 28.921875 28.921876zm0 0" fill="#f8ec7d"/><path d="m141.550781 315.011719 2 2.007812 28.757813 28.902344-26.046875 25.917969-1.339844 1.332031-32.613281 32.449219v-35.882813h-.910156c-33.457032 0-48.839844-14.167969-49.4375-14.769531-36.789063-30.449219-28.949219-73.570312-28.949219-73.867188l1.207031-6.941406 3.609375 6.03125c27.742187 46.128906 65.132813 43.417969 74.480469 41.910156v-36.480468zm0 0" fill="#6fe3ff"/></svg>